<svg width="120" height="120" viewBox="0 0 120 120" fill="none" xmlns="http://www.w3.org/2000/svg">
<g clip-path="url(#clip0_1896_50539)">
<path fill-rule="evenodd" clip-rule="evenodd" d="M116.46 22.2975C117.504 22.7142 118.399 23.4342 119.03 24.3647C119.661 25.2951 119.999 26.3933 120 27.5175V92.4825C119.999 93.6067 119.661 94.7049 119.03 95.6353C118.399 96.5658 117.504 97.2858 116.46 97.7025L62.085 119.452C60.7441 119.989 59.2484 119.989 57.9075 119.452L3.5325 97.7025C2.48977 97.2846 1.59604 96.5641 0.966454 95.6337C0.336867 94.7034 0.000261449 93.6059 0 92.4825L0 27.5175C0.000261449 26.3941 0.336867 25.2966 0.966454 24.3662C1.59604 23.4359 2.48977 22.7154 3.5325 22.2975L55.8225 1.37999L55.8975 1.35749L57.9075 0.54749C59.2506 0.00923519 60.7494 0.00923519 62.0925 0.54749L64.11 1.35749L64.185 1.37999L116.46 22.2975ZM78.03 15L31.875 33.4575L13.845 26.25L7.5 28.7925V31.7925L56.25 51.2925V110.707L60 112.207L63.75 110.707V51.3L112.5 31.8V28.8L106.155 26.2575L60 44.7075L41.97 37.5L88.125 19.0425L78.03 15Z" fill="url(#paint0_linear_1896_50539)"/>
</g>
<defs>
<linearGradient id="paint0_linear_1896_50539" x1="60" y1="0.143799" x2="60" y2="119.855" gradientUnits="userSpaceOnUse">
<stop stop-color="#B531FD"/>
<stop offset="1" stop-color="#00B4FE"/>
</linearGradient>
<clipPath id="clip0_1896_50539">
<rect width="120" height="120" fill="white"/>
</clipPath>
</defs>
</svg>
