<svg width="120" height="120" viewBox="0 0 120 120" fill="none" xmlns="http://www.w3.org/2000/svg">
<path d="M111.947 8.96716C111.904 8.75987 111.803 8.56908 111.656 8.41715C111.508 8.26522 111.321 8.15845 111.115 8.10935C97.3874 4.7531 65.6695 16.7133 48.4851 33.8906C45.4201 36.9308 42.6259 40.2324 40.1343 43.7578C34.8351 43.289 29.5359 43.6804 25.0195 45.6492C12.2765 51.2578 8.56634 65.8922 7.53274 72.1875C7.47412 72.532 7.49623 72.8855 7.59735 73.2201C7.69846 73.5547 7.87582 73.8612 8.11548 74.1156C8.35513 74.3701 8.65055 74.5654 8.97849 74.6863C9.30643 74.8072 9.65795 74.8504 10.0054 74.8125L30.4687 72.5554C30.4833 74.0982 30.5764 75.6393 30.7476 77.1726C30.8506 78.2374 31.3232 79.2325 32.0835 79.9851L40.0077 87.8906C40.761 88.6499 41.7558 89.1224 42.8202 89.2265C44.345 89.3971 45.8774 89.4902 47.4116 89.5054L45.1663 109.943C45.1289 110.29 45.1724 110.642 45.2935 110.969C45.4146 111.297 45.6099 111.592 45.8642 111.832C46.1185 112.071 46.4249 112.249 46.7592 112.35C47.0936 112.451 47.4468 112.474 47.7913 112.416C54.0749 111.408 68.7351 107.698 74.3109 94.9547C76.2796 90.4383 76.6827 85.1648 76.2281 79.8914C79.762 77.3996 83.0722 74.6046 86.121 71.5383C103.359 54.3867 115.251 23.3765 111.947 8.96716ZM68.9226 51.0773C67.3485 49.5043 66.2763 47.4997 65.8416 45.3172C65.407 43.1347 65.6293 40.8724 66.4806 38.8163C67.3319 36.7602 68.7738 35.0027 70.624 33.7662C72.4742 32.5297 74.6496 31.8698 76.8749 31.8698C79.1003 31.8698 81.2757 32.5297 83.1259 33.7662C84.9761 35.0027 86.418 36.7602 87.2693 38.8163C88.1205 40.8724 88.3429 43.1347 87.9082 45.3172C87.4735 47.4997 86.4014 49.5043 84.8273 51.0773C83.7835 52.1226 82.5439 52.9518 81.1793 53.5176C79.8148 54.0834 78.3521 54.3746 76.8749 54.3746C75.3978 54.3746 73.9351 54.0834 72.5705 53.5176C71.206 52.9518 69.9664 52.1226 68.9226 51.0773Z" fill="#AAAABF"/>
<path d="M39.4688 93.6164C38.1844 94.9031 36.1242 95.4047 33.6445 95.8336C28.0734 96.7828 23.1539 91.9688 24.1547 86.3367C24.5367 84.2016 25.6664 81.2086 26.3695 80.5055C26.5232 80.3548 26.6255 80.1595 26.6619 79.9473C26.6983 79.7351 26.6669 79.5169 26.5722 79.3236C26.4775 79.1303 26.3243 78.9717 26.1343 78.8705C25.9444 78.7692 25.7273 78.7303 25.5141 78.7594C22.3987 79.1406 19.5003 80.553 17.2805 82.7719C11.7703 88.2867 11.25 108.75 11.25 108.75C11.25 108.75 31.725 108.23 37.2352 102.715C39.4609 100.497 40.8752 97.594 41.25 94.4742C41.3367 93.4945 40.1438 92.9109 39.4688 93.6164Z" fill="#AAAABF"/>
</svg>
