<svg width="25" height="36" viewBox="0 0 25 36" fill="none" xmlns="http://www.w3.org/2000/svg">
<path d="M4.37999 12.4992L12.4992 4.37997L13.4472 5.32797C13.6704 5.55117 14.0352 5.55117 14.2584 5.32797L16.1544 3.43197C16.3776 3.20877 16.3776 2.84397 16.1544 2.62077L14.268 0.73437C13.2912 -0.24243 11.7096 -0.24243 10.7328 0.73437L0.73199 10.7328C-0.24481 11.7096 -0.24481 13.2912 0.73199 14.268L3.02639 16.5624L5.73359 13.8552L4.37999 12.5016V12.4992Z" fill="#B531FD"/>
<path d="M24.2688 10.7328L22.3824 8.84636C22.1592 8.62316 21.7944 8.62316 21.5712 8.84636L19.6752 10.7424C19.452 10.9656 19.452 11.3304 19.6752 11.5536L20.6232 12.5016L12.5016 20.6232L9.79443 23.3304L10.7352 24.2712C11.712 25.248 13.2936 25.248 14.2704 24.2712L24.2712 14.2704C25.248 13.2936 25.248 11.712 24.2712 10.7352L24.2688 10.7328Z" fill="#B531FD"/>
<path d="M24.2688 25.0944C25.2456 24.1176 25.2456 22.536 24.2688 21.5592L22.3824 19.6728C22.1592 19.4496 21.7944 19.4496 21.5712 19.6728L19.6752 21.5688C19.452 21.792 19.452 22.1568 19.6752 22.38L20.6232 23.328L15.2088 28.7424L17.916 31.4496L24.2688 25.0968V25.0944Z" fill="#00B4FE"/>
<path d="M12.4992 31.4496L4.37761 23.328L4.65121 23.0544L11.4312 16.272L12.4968 15.2064L13.4448 16.1544C13.668 16.3776 14.0328 16.3776 14.256 16.1544L16.152 14.2584C16.3752 14.0352 16.3752 13.6704 16.152 13.4472L14.2656 11.5608C13.2888 10.584 11.7072 10.584 10.7304 11.5608L7.81921 14.472L3.75841 18.5328L0.729609 21.5616C-0.247191 22.5384 -0.247191 24.12 0.729609 25.0968L10.7304 35.0976C11.7072 36.0744 13.2888 36.0744 14.2656 35.0976L15.2064 34.1568L12.4992 31.4496Z" fill="#00B4FE"/>
</svg>
