<svg width="120" height="36" viewBox="0 0 120 36" fill="none" xmlns="http://www.w3.org/2000/svg">
<g clip-path="url(#clip0_4617_598)">
<path d="M4.37999 12.4992L12.4992 4.38003L13.4472 5.32803C13.6704 5.55123 14.0352 5.55123 14.2584 5.32803L16.1544 3.43203C16.3776 3.20883 16.3776 2.84403 16.1544 2.62083L14.268 0.734431C13.2912 -0.242369 11.7096 -0.242369 10.7328 0.734431L0.73199 10.7328C-0.24481 11.7096 -0.24481 13.2912 0.73199 14.268L3.02639 16.5624L5.73359 13.8552L4.37999 12.5016V12.4992Z" fill="#B531FD"/>
<path d="M24.2687 10.7329L22.3823 8.84648C22.1591 8.62328 21.7943 8.62328 21.5711 8.84648L19.6751 10.7425C19.4519 10.9657 19.4519 11.3305 19.6751 11.5537L20.6231 12.5017L12.5015 20.6233L9.79431 23.3305L10.7351 24.2713C11.7119 25.2481 13.2935 25.2481 14.2703 24.2713L24.2711 14.2705C25.2479 13.2937 25.2479 11.7121 24.2711 10.7353L24.2687 10.7329Z" fill="#B531FD"/>
<path d="M24.2687 25.0944C25.2455 24.1176 25.2455 22.536 24.2687 21.5592L22.3823 19.6728C22.1591 19.4496 21.7943 19.4496 21.5711 19.6728L19.6751 21.5688C19.4519 21.792 19.4519 22.1568 19.6751 22.38L20.6231 23.328L15.2087 28.7424L17.9159 31.4496L24.2687 25.0968V25.0944Z" fill="#00B4FE"/>
<path d="M12.4991 31.4496L4.37755 23.328L4.65115 23.0544L11.4311 16.272L12.4967 15.2064L13.4447 16.1544C13.6679 16.3776 14.0327 16.3776 14.2559 16.1544L16.1519 14.2584C16.3751 14.0352 16.3751 13.6704 16.1519 13.4472L14.2655 11.5608C13.2887 10.584 11.7071 10.584 10.7303 11.5608L7.81915 14.472L3.75835 18.5328L0.729548 21.5616C-0.247252 22.5384 -0.247252 24.12 0.729548 25.0968L10.7303 35.0976C11.7071 36.0744 13.2887 36.0744 14.2655 35.0976L15.2063 34.1568L12.4991 31.4496Z" fill="#00B4FE"/>
<path d="M64.1328 23.0256L59.1384 12.5256C59.0376 12.3312 58.824 12.1848 58.4952 12.0888C58.1664 11.9904 57.8088 11.9424 57.4224 11.9424C57.036 11.9424 56.7024 11.9904 56.376 12.0888C56.0472 12.1848 55.8336 12.3312 55.7328 12.5256L50.7144 23.0256C50.6976 23.0904 50.6904 23.1384 50.6904 23.172C50.6904 23.3136 50.7744 23.4336 50.9424 23.5368C51.1104 23.64 51.3288 23.724 51.5976 23.7888C51.8664 23.8536 52.1184 23.8872 52.3536 23.8872C52.572 23.8872 52.7688 23.8608 52.9464 23.8056C53.124 23.7528 53.2368 23.6592 53.2872 23.5296L54.2952 21.696H60.5496L61.584 23.5296C61.6512 23.6592 61.764 23.7504 61.9248 23.8056C62.0856 23.8608 62.2728 23.8872 62.4936 23.8872C62.7456 23.8872 63.0024 23.856 63.2616 23.7888C63.5232 23.724 63.7416 23.6376 63.9168 23.5296C64.0944 23.4216 64.1808 23.304 64.1808 23.172C64.1808 23.1384 64.164 23.0904 64.1304 23.0256H64.1328ZM54.9024 19.8504L57.4248 14.292L59.9472 19.8504H54.9024Z" fill="#51637B"/>
<path d="M119.95 23.0256L114.955 12.5256C114.854 12.3312 114.641 12.1848 114.312 12.0888C113.983 11.9904 113.626 11.9424 113.239 11.9424C112.853 11.9424 112.519 11.9904 112.193 12.0888C111.864 12.1848 111.65 12.3312 111.55 12.5256L106.531 23.0256C106.514 23.0904 106.507 23.1384 106.507 23.172C106.507 23.3136 106.591 23.4336 106.759 23.5368C106.927 23.64 107.146 23.724 107.414 23.7888C107.683 23.8536 107.935 23.8872 108.17 23.8872C108.389 23.8872 108.586 23.8608 108.763 23.8056C108.941 23.7528 109.054 23.6592 109.104 23.5296L110.112 21.696H116.366L117.401 23.5296C117.468 23.6592 117.581 23.7504 117.742 23.8056C117.902 23.8608 118.09 23.8872 118.31 23.8872C118.562 23.8872 118.819 23.856 119.078 23.7888C119.34 23.724 119.558 23.6376 119.734 23.5296C119.911 23.4216 119.998 23.304 119.998 23.172C119.998 23.1384 119.981 23.0904 119.947 23.0256H119.95ZM110.719 19.8504L113.242 14.292L115.764 19.8504H110.719Z" fill="#51637B"/>
<path d="M68.1168 23.8848C67.7808 23.8848 67.4736 23.8128 67.1952 23.6712C66.9168 23.5296 66.78 23.3064 66.78 23.004V12.828C66.78 12.5424 66.9072 12.324 67.1592 12.1728C67.4112 12.0216 67.68 11.9448 67.9656 11.9448H76.8192C77.1216 11.9448 77.34 12.072 77.4744 12.324C77.6088 12.576 77.676 12.8376 77.676 13.1064C77.676 13.4256 77.604 13.7088 77.4624 13.9512C77.3184 14.196 77.1048 14.316 76.8192 14.316H69.4536V17.3088H73.3632C73.6488 17.3088 73.8624 17.4192 74.0064 17.6376C74.148 17.856 74.22 18.108 74.22 18.3936C74.22 18.6288 74.1528 18.8592 74.0184 19.0872C73.884 19.3152 73.6656 19.428 73.3632 19.428H69.4536V23.0064C69.4536 23.3088 69.3144 23.532 69.0384 23.6736C68.76 23.8176 68.4528 23.8872 68.1168 23.8872V23.8848Z" fill="#51637B"/>
<path d="M81.2928 23.8848C81.0072 23.8848 80.7384 23.8104 80.4864 23.6592C80.2344 23.508 80.1096 23.2896 80.1096 23.004V12.8232C80.1096 12.5376 80.2344 12.3192 80.4864 12.168C80.7384 12.0168 81.0072 11.9424 81.2928 11.9424H90.2544C90.5736 11.9424 90.7992 12.0672 90.9336 12.3192C91.068 12.5712 91.1352 12.8304 91.1352 13.0992C91.1352 13.4184 91.0584 13.6992 90.9096 13.9416C90.7584 14.184 90.54 14.3064 90.2544 14.3064H82.776V17.316H86.652C86.9376 17.316 87.156 17.4264 87.3072 17.6424C87.4584 17.8608 87.5328 18.1128 87.5328 18.3984C87.5328 18.6336 87.4656 18.864 87.3312 19.0896C87.1968 19.3152 86.9712 19.4304 86.652 19.4304H82.776V21.516H90.2544C90.54 21.516 90.7584 21.6336 90.9096 21.8688C91.0608 22.104 91.1352 22.3896 91.1352 22.7256C91.1352 22.9944 91.068 23.2536 90.9336 23.5056C90.7992 23.7576 90.5736 23.8824 90.2544 23.8824H81.2928V23.8848Z" fill="#51637B"/>
<path d="M47.3256 23.8847C48.1872 23.8847 48.8856 23.1863 48.8856 22.3247V20.6591C48.8856 20.4623 48.7248 20.3015 48.528 20.3015H46.8552C46.6584 20.3015 46.4976 20.4623 46.4976 20.6591V21.4943H41.7216V23.8823H47.328L47.3256 23.8847Z" fill="#51637B"/>
<path d="M39.3312 21.4967V14.3303H39.5736H45.5568H46.4976V15.1655C46.4976 15.3623 46.6584 15.5231 46.8552 15.5231H48.528C48.7248 15.5231 48.8856 15.3623 48.8856 15.1655V13.4999C48.8856 12.6383 48.1872 11.9399 47.3256 11.9399H44.7576H41.1744H38.5008C37.6392 11.9399 36.9408 12.6383 36.9408 13.4999V22.3247C36.9408 23.1863 37.6392 23.8847 38.5008 23.8847H39.3312V21.4967Z" fill="#51637B"/>
<path d="M103.507 23.8847C104.369 23.8847 105.067 23.1863 105.067 22.3247V20.6591C105.067 20.4623 104.906 20.3015 104.71 20.3015H103.037C102.84 20.3015 102.679 20.4623 102.679 20.6591V21.4943H97.9032V23.8823H103.51L103.507 23.8847Z" fill="#51637B"/>
<path d="M95.5128 21.4967V14.3303H95.7552H101.738H102.679V15.1655C102.679 15.3623 102.84 15.5231 103.037 15.5231H104.71C104.906 15.5231 105.067 15.3623 105.067 15.1655V13.4999C105.067 12.6383 104.369 11.9399 103.507 11.9399H100.939H97.356H94.6824C93.8208 11.9399 93.1224 12.6383 93.1224 13.4999V22.3247C93.1224 23.1863 93.8208 23.8847 94.6824 23.8847H95.5128V21.4967Z" fill="#51637B"/>
</g>
<defs>
<clipPath id="clip0_4617_598">
<rect width="120" height="35.8272" fill="white"/>
</clipPath>
</defs>
</svg>
